<svg width="235" height="141" viewBox="0 0 235 141" fill="none" xmlns="http://www.w3.org/2000/svg">
<path d="M235 24.5795V11.75C235 5.2618 229.738 0 223.25 0H11.75C5.2618 0 0 5.2618 0 11.75V24.5795C6.82969 27.0066 11.75 33.4618 11.75 41.125C11.75 48.7882 6.82969 55.2434 0 57.6705V94H235V57.6705C228.17 55.2434 223.25 48.7882 223.25 41.125C223.25 33.4618 228.17 27.0066 235 24.5795ZM82.25 70.5H58.75V23.5H82.25V70.5ZM129.25 70.5H105.75V23.5H129.25V70.5ZM176.25 70.5H152.75V23.5H176.25V70.5ZM0 141H23.5V131.207C23.5 127.961 26.1291 125.332 29.375 125.332C32.6209 125.332 35.25 127.961 35.25 131.207V141H82.25V131.207C82.25 127.961 84.8791 125.332 88.125 125.332C91.3709 125.332 94 127.961 94 131.207V141H141V131.207C141 127.961 143.629 125.332 146.875 125.332C150.121 125.332 152.75 127.961 152.75 131.207V141H199.75V131.207C199.75 127.961 202.379 125.332 205.625 125.332C208.871 125.332 211.5 127.961 211.5 131.207V141H235V105.75H0V141Z" fill="#F3C623"/>
</svg>
